  0
SECTION
  2
HEADER
  9
$ACADVER
  1
AC1018
  9
$ACADMAINTVER
 70
     0
  9
$DWGCODEPAGE
  3
ANSI_1252
  9
$EXTMIN
 10
7511358.32183344
 20
4692183.07500395
 30
0.0
  9
$EXTMAX
 10
7511441.93347139
 20
4692366.51414202
 30
0.0
  9
$LIMMIN
 10
0.0
 20
0.0
  9
$LIMMAX
 10
12.0
 20
9.0
  9
$ORTHOMODE
 70
     0
  9
$REGENMODE
 70
     1
  9
$FILLMODE
 70
     1
  9
$QTEXTMODE
 70
     0
  9
$MIRRTEXT
 70
     1
  9
$LTSCALE
 40
1.0
  9
$ATTMODE
 70
     1
  9
$TEXTSIZE
 40
0.2
  9
$TRACEWID
 40
0.05
  9
$TEXTSTYLE
  7
Standard
  9
$CLAYER
  8
0
  9
$CELTYPE
  6
ByLayer
  9
$CECOLOR
 62
   256
  9
$CELTSCALE
 40
1.0
  9
$DISPSILH
 70
     0
  9
$LUNITS
 70
     2
  9
$LUPREC
 70
     4
  9
$SKETCHINC
 40
0.1
  9
$FILLETRAD
 40
0.5
  9
$AUNITS
 70
     0
  9
$AUPREC
 70
     0
  9
$MENU
  1
.
  9
$ELEVATION
 40
0.0
  9
$PELEVATION
 40
0.0
  9
$THICKNESS
 40
0.0
  9
$LIMCHECK
 70
     0
  9
$CHAMFERA
 40
0.5
  9
$CHAMFERB
 40
0.5
  9
$CHAMFERC
 40
1.0
  9
$CHAMFERD
 40
0.0
  9
$SKPOLY
 70
     0
  9
$ANGBASE
 50
0.0
  9
$ANGDIR
 70
     0
  9
$PDMODE
 70
     0
  9
$PDSIZE
 40
0.0
  9
$PLINEWID
 40
0.0
  9
$SPLFRAME
 70
     0
  9
$SPLINETYPE
 70
     6
  9
$SPLINESEGS
 70
     8
  9
$HANDSEED
  5
00020009
  9
$SURFTAB1
 70
     6
  9
$SURFTAB2
 70
     6
  9
$SURFTYPE
 70
     6
  9
$SURFU
 70
     6
  9
$SURFV
 70
     6
  9
$UCSBASE
  2

  9
$UCSNAME
  2

  9
$UCSORG
 10
0.0
 20
0.0
 30
0.0
  9
$UCSXDIR
 10
1.0
 20
0.0
 30
0.0
  9
$UCSYDIR
 10
0.0
 20
1.0
 30
0.0
  9
$UCSORTHOREF
  2

  9
$UCSORTHOVIEW
 70
     0
  9
$UCSORGTOP
 10
0.0
 20
0.0
 30
0.0
  9
$UCSORGBOTTOM
 10
0.0
 20
0.0
 30
0.0
  9
$UCSORGLEFT
 10
0.0
 20
0.0
 30
0.0
  9
$UCSORGRIGHT
 10
0.0
 20
0.0
 30
0.0
  9
$UCSORGFRONT
 10
0.0
 20
0.0
 30
0.0
  9
$UCSORGBACK
 10
0.0
 20
0.0
 30
0.0
  9
$PUCSBASE
  2

  9
$PUCSNAME
  2

  9
$PUCSORG
 10
0.0
 20
0.0
 30
0.0
  9
$PUCSXDIR
 10
1.0
 20
0.0
 30
0.0
  9
$PUCSYDIR
 10
0.0
 20
1.0
 30
0.0
  9
$PUCSORTHOREF
  2

  9
$PUCSORTHOVIEW
 70
     0
  9
$PUCSORGTOP
 10
0.0
 20
0.0
 30
0.0
  9
$PUCSORGBOTTOM
 10
0.0
 20
0.0
 30
0.0
  9
$PUCSORGLEFT
 10
0.0
 20
0.0
 30
0.0
  9
$PUCSORGRIGHT
 10
0.0
 20
0.0
 30
0.0
  9
$PUCSORGFRONT
 10
0.0
 20
0.0
 30
0.0
  9
$PUCSORGBACK
 10
0.0
 20
0.0
 30
0.0
  9
$WORLDVIEW
 70
     1
  9
$SHADEDGE
 70
     3
  9
$SHADEDIF
 70
    70
  9
$TILEMODE
 70
     1
  9
$MAXACTVP
 70
    64
  9
$PINSBASE
 10
0.0
 20
0.0
 30
0.0
  9
$PLIMCHECK
 70
     0
  9
$PEXTMIN
 10
1.000000000000000E+20
 20
1.000000000000000E+20
 30
1.000000000000000E+20
  9
$PEXTMAX
 10
-1.000000000000000E+20
 20
-1.000000000000000E+20
 30
-1.000000000000000E+20
  9
$PLIMMIN
 10
0.0
 20
0.0
  9
$PLIMMAX
 10
12.0
 20
9.0
  9
$UNITMODE
 70
     0
  9
$VISRETAIN
 70
     1
  9
$PLINEGEN
 70
     0
  9
$PSLTSCALE
 70
     1
  9
$TREEDEPTH
 70
  3020
  9
$CMLSTYLE
  2
Standard
  9
$CMLJUST
 70
     0
  9
$CMLSCALE
 40
1.0
  9
$PROXYGRAPHICS
 70
     1
  9
$MEASUREMENT
 70
     0
  9
$CELWEIGHT
370
    -1
  9
$ENDCAPS
280
     0
  9
$JOINSTYLE
280
     0
  9
$LWDISPLAY
290
     0
  9
$INSUNITS
 70
     1
  9
$HYPERLINKBASE
  1

  9
$STYLESHEET
  1

  9
$XEDIT
290
     1
  9
$CEPSNTYPE
380
     0
  9
$PSTYLEMODE
290
     1
  9
$EXTNAMES
290
     1
  9
$PSVPSCALE
 40
0.0
  9
$OLESTARTUP
290
     0
  9
$SORTENTS
280
   127
  9
$INDEXCTL
280
     0
  9
$HIDETEXT
280
     1
  9
$XCLIPFRAME
290
     0
  9
$HALOGAP
280
     0
  9
$OBSCOLOR
 70
   257
  9
$OBSLTYPE
280
     0
  9
$INTERSECTIONDISPLAY
280
     0
  9
$INTERSECTIONCOLOR
 70
   257
  9
$DIMASSOC
280
     2
  9
$PROJECTNAME
  1

  0
ENDSEC
  0
SECTION
  2
CLASSES
  0
CLASS
  1
ACDBDICTIONARYWDFLT
  2
AcDbDictionaryWithDefault
  3
ObjectDBX Classes
 90
        0
 91
        4
280
     0
281
     0
  0
ENDSEC
  0
SECTION
  2
TABLES
  0
TABLE
  2
VPORT
  5
8
330
0
100
AcDbSymbolTable
 70
     1
  0
VPORT
  5
29
330
8
100
AcDbSymbolTableRecord
100
AcDbViewportTableRecord
  2
*Active
 70
     0
 10
0.0
 20
0.0
 11
1.0
 21
1.0
 12
80.25
 22
106.4409457059851
 13
0.0
 23
0.0
 14
0.5
 24
0.5
 15
0.5
 25
0.5
 16
0.0
 26
0.0
 36
1.0
 17
0.0
 27
0.0
 37
0.0
 40
113.3818914119703
 41
0.8863849310366128
 42
50.0
 43
0.0
 44
0.0
 50
0.0
 51
0.0
 71
     0
 72
  1000
 73
     1
 74
     3
 75
     0
 76
     0
 77
     0
 78
     0
281
     0
 65
     1
110
0.0
120
0.0
130
0.0
111
1.0
121
0.0
131
0.0
112
0.0
122
1.0
132
0.0
 79
     0
146
0.0
  0
ENDTAB
  0
TABLE
  2
LTYPE
  5
5
330
0
100
AcDbSymbolTable
 70
     1
  0
LTYPE
  5
14
330
5
100
AcDbSymbolTableRecord
100
AcDbLinetypeTableRecord
  2
ByBlock
 70
     0
  3

 72
    65
 73
     0
 40
0.0
  0
LTYPE
  5
15
330
5
100
AcDbSymbolTableRecord
100
AcDbLinetypeTableRecord
  2
ByLayer
 70
     0
  3

 72
    65
 73
     0
 40
0.0
  0
LTYPE
  5
16
330
5
100
AcDbSymbolTableRecord
100
AcDbLinetypeTableRecord
  2
Continuous
 70
     0
  3
Solid line
 72
    65
 73
     0
 40
0.0
  0
ENDTAB
  0
TABLE
  2
LAYER
  5
2
330
0
100
AcDbSymbolTable
 70
     1
  0
LAYER
  5
10
330
2
100
AcDbSymbolTableRecord
100
AcDbLayerTableRecord
  2
0
 70
     0
 62
     7
  6
Continuous
370
    -3
390
F
  0
ENDTAB
  0
TABLE
  2
STYLE
  5
3
330
0
100
AcDbSymbolTable
 70
     1
  0
STYLE
  5
11
330
3
100
AcDbSymbolTableRecord
100
AcDbTextStyleTableRecord
  2
Standard
 70
     0
 40
0.0
 41
1.0
 50
0.0
 71
     0
 42
0.2
  3
txt
  4

  0
ENDTAB
  0
TABLE
  2
VIEW
  5
6
330
0
100
AcDbSymbolTable
 70
     0
  0
ENDTAB
  0
TABLE
  2
UCS
  5
7
330
0
100
AcDbSymbolTable
 70
     0
  0
ENDTAB
  0
TABLE
  2
APPID
  5
9
330
0
100
AcDbSymbolTable
 70
     1
  0
APPID
  5
12
330
9
100
AcDbSymbolTableRecord
100
AcDbRegAppTableRecord
  2
ACAD
 70
     0
  0
ENDTAB
  0
TABLE
  2
DIMSTYLE
  5
A
330
0
100
AcDbSymbolTable
 70
     1
100
AcDbDimStyleTable
  0
DIMSTYLE
105
27
330
A
100
AcDbSymbolTableRecord
100
AcDbDimStyleTableRecord
  2
Standard
 70
     0
340
11
  0
ENDTAB
  0
TABLE
  2
BLOCK_RECORD
  5
1
330
0
100
AcDbSymbolTable
 70
     1
  0
BLOCK_RECORD
  5
1F
330
1
100
AcDbSymbolTableRecord
100
AcDbBlockTableRecord
  2
*Model_Space
340
22
  0
BLOCK_RECORD
  5
1B
330
1
100
AcDbSymbolTableRecord
100
AcDbBlockTableRecord
  2
*Paper_Space
340
1E
  0
ENDTAB
  0
ENDSEC
  0
SECTION
  2
BLOCKS
  0
BLOCK
  5
20
330
1F
100
AcDbEntity
  8
0
100
AcDbBlockBegin
  2
*Model_Space
 70
     0
 10
0.0
 20
0.0
 30
0.0
  3
*Model_Space
  1

  0
ENDBLK
  5
21
330
1F
100
AcDbEntity
  8
0
100
AcDbBlockEnd
  0
BLOCK
  5
1C
330
1B
100
AcDbEntity
 67
     1
  8
0
100
AcDbBlockBegin
  2
*Paper_Space
 70
     0
 10
0.0
 20
0.0
 30
0.0
  3
*Paper_Space
  1

  0
ENDBLK
  5
1D
330
1B
100
AcDbEntity
 67
     1
  8
0
100
AcDbBlockEnd
  0
ENDSEC
  0
SECTION
  2
ENTITIES
  0
HATCH
  5
20000
100
AcDbEntity
  8
0
100
AcDbHatch
 10
0
 20
0
 30
0
210
0
220
0
230
1
  2
SOLID
 70
1
 71
0
 91
1
 92
2
 72
0
 73
1
 93
9
 10
7511361.82547625
 20
4692255.81391125
 10
7511363.95144988
 20
4692291.38559682
 10
7511361.4495602
 20
4692291.79429099
 10
7511359.46675678
 20
4692294.13083342
 10
7511359.87696815
 20
4692303.35278002
 10
7511400.18724812
 20
4692296.7679269
 10
7511397.42058641
 20
4692273.24321551
 10
7511395.38147218
 20
4692253.8084071
 10
7511361.82547625
 20
4692255.81391125
 97
0
 75
0
 76
1
 98
0
  0
HATCH
  5
20001
100
AcDbEntity
  8
0
100
AcDbHatch
 10
0
 20
0
 30
0
210
0
220
0
230
1
  2
SOLID
 70
1
 71
0
 91
1
 92
2
 72
0
 73
1
 93
54
 10
7511364.89598866
 20
4692358.95895369
 10
7511365.27995102
 20
4692361.30571048
 10
7511365.30967632
 20
4692361.51158916
 10
7511365.34657132
 20
4692361.71630453
 10
7511365.39059104
 20
4692361.91960699
 10
7511365.44168181
 20
4692362.12124865
 10
7511365.49978132
 20
4692362.32098365
 10
7511365.56481875
 20
4692362.51856846
 10
7511365.63671479
 20
4692362.71376217
 10
7511365.71538178
 20
4692362.90632678
 10
7511365.8007238
 20
4692363.0960275
 10
7511365.8926368
 20
4692363.28263304
 10
7511365.99100871
 20
4692363.46591586
 10
7511366.09571958
 20
4692363.64565249
 10
7511366.20664175
 20
4692363.82162379
 10
7511366.32363997
 20
4692363.99361519
 10
7511366.44657157
 20
4692364.16141699
 10
7511366.57528669
 20
4692364.32482459
 10
7511366.70962837
 20
4692364.48363875
 10
7511366.84943282
 20
4692364.63766583
 10
7511366.99452956
 20
4692364.78671803
 10
7511367.1447417
 20
4692364.93061361
 10
7511367.29988608
 20
4692365.06917713
 10
7511367.45977353
 20
4692365.20223962
 10
7511367.62420911
 20
4692365.32963886
 10
7511367.79299231
 20
4692365.45121951
 10
7511367.96591736
 20
4692365.56683332
 10
7511368.1427734
 20
4692365.67633933
 10
7511368.32334479
 20
4692365.77960403
 10
7511368.50741137
 20
4692365.87650149
 10
7511368.69474871
 20
4692365.96691358
 10
7511368.88512839
 20
4692366.05073006
 10
7511369.07831828
 20
4692366.12784873
 10
7511369.27408284
 20
4692366.19817557
 10
7511369.47218336
 20
4692366.26162482
 10
7511369.67237831
 20
4692366.31811912
 10
7511369.8744236
 20
4692366.3675896
 10
7511370.07807287
 20
4692366.40997592
 10
7511370.28307781
 20
4692366.44522641
 10
7511370.48918847
 20
4692366.4732981
 10
7511370.69615355
 20
4692366.49415674
 10
7511370.90372068
 20
4692366.50777692
 10
7511371.1116368
 20
4692366.51414202
 10
7511371.31964838
 20
4692366.51324428
 10
7511371.52750181
 20
4692366.5050848
 10
7511371.73494365
 20
4692366.48967352
 10
7511371.94172097
 20
4692366.46702924
 10
7511372.14758166
 20
4692366.43717957
 10
7511407.99591639
 20
4692360.57801993
 10
7511407.49652616
 20
4692354.63069254
 10
7511407.38042293
 20
4692353.24799845
 10
7511404.60941575
 20
4692332.00086495
 10
7511362.76262114
 20
4692338.84043092
 10
7511364.89598866
 20
4692358.95895369
 97
0
 75
0
 76
1
 98
0
  0
HATCH
  5
20002
100
AcDbEntity
  8
0
100
AcDbHatch
 10
0
 20
0
 30
0
210
0
220
0
230
1
  2
SOLID
 70
1
 71
0
 91
1
 92
2
 72
0
 73
1
 93
5
 10
7511361.7210585
 20
4692255.66966953
 10
7511395.469905
 20
4692253.64970951
 10
7511392.54271919
 20
4692225.77392327
 10
7511360.04812391
 20
4692227.71881295
 10
7511361.7210585
 20
4692255.66966953
 97
0
 75
0
 76
1
 98
0
  0
HATCH
  5
20003
100
AcDbEntity
  8
0
100
AcDbHatch
 10
0
 20
0
 30
0
210
0
220
0
230
1
  2
SOLID
 70
1
 71
0
 91
1
 92
2
 72
0
 73
1
 93
9
 10
7511358.32183344
 20
4692197.16145887
 10
7511360.14146357
 20
4692227.56134424
 10
7511371.62360533
 20
4692226.87406146
 10
7511382.87359821
 20
4692226.20067661
 10
7511388.39255445
 20
4692225.87033337
 10
7511392.43933168
 20
4692225.62810753
 10
7511391.28924305
 20
4692214.42142079
 10
7511389.32752424
 20
4692195.30556734
 10
7511358.32183344
 20
4692197.16145887
 97
0
 75
0
 76
1
 98
0
  0
HATCH
  5
20004
100
AcDbEntity
  8
0
100
AcDbHatch
 10
0
 20
0
 30
0
210
0
220
0
230
1
  2
SOLID
 70
1
 71
0
 91
1
 92
2
 72
0
 73
1
 93
7
 10
7511401.97221236
 20
4692311.00643389
 10
7511400.29844896
 20
4692296.78508415
 10
7511359.78779083
 20
4692303.40626794
 10
7511360.43320815
 20
4692317.86431455
 10
7511362.64597
 20
4692338.70750641
 10
7511404.68874928
 20
4692331.83590812
 10
7511401.97221236
 20
4692311.00643389
 97
0
 75
0
 76
1
 98
0
  0
HATCH
  5
20005
100
AcDbEntity
  8
0
100
AcDbHatch
 10
0
 20
0
 30
0
210
0
220
0
230
1
  2
SOLID
 70
1
 71
0
 91
1
 92
2
 72
0
 73
1
 93
5
 10
7511407.78512777
 20
4692294.12751523
 10
7511437.81422682
 20
4692289.21946897
 10
7511432.1202409
 20
4692254.38172329
 10
7511403.51194522
 20
4692259.05754917
 10
7511407.78512777
 20
4692294.12751523
 97
0
 75
0
 76
1
 98
0
  0
HATCH
  5
20006
100
AcDbEntity
  8
0
100
AcDbHatch
 10
0
 20
0
 30
0
210
0
220
0
230
1
  2
SOLID
 70
1
 71
0
 91
1
 92
2
 72
0
 73
1
 93
6
 10
7511403.49153337
 20
4692258.89002933
 10
7511403.50589255
 20
4692259.007875
 10
7511433.19367189
 20
4692254.15561506
 10
7511426.53993187
 20
4692213.44576687
 10
7511399.39066225
 20
4692217.88312515
 10
7511403.49153337
 20
4692258.89002933
 97
0
 75
0
 76
1
 98
0
  0
HATCH
  5
20007
100
AcDbEntity
  8
0
100
AcDbHatch
 10
0
 20
0
 30
0
210
0
220
0
230
1
  2
SOLID
 70
1
 71
0
 91
1
 92
2
 72
0
 73
1
 93
49
 10
7511397.81735624
 20
4692187.0329379
 10
7511397.76675451
 20
4692187.0421016
 10
7511397.71649664
 20
4692187.05299444
 10
7511397.66664169
 20
4692187.06560363
 10
7511397.61724825
 20
4692187.07991435
 10
7511397.56837439
 20
4692187.09590977
 10
7511397.52007754
 20
4692187.1135711
 10
7511397.47241447
 20
4692187.13287758
 10
7511397.42544121
 20
4692187.15380651
 10
7511397.37921295
 20
4692187.1763333
 10
7511397.33378403
 20
4692187.20043147
 10
7511397.28920786
 20
4692187.22607269
 10
7511397.24553681
 20
4692187.25322684
 10
7511397.20282222
 20
4692187.28186199
 10
7511397.1611143
 20
4692187.31194449
 10
7511397.12046205
 20
4692187.34343899
 10
7511397.08091327
 20
4692187.37630846
 10
7511397.04251444
 20
4692187.41051427
 10
7511397.00531068
 20
4692187.44601622
 10
7511396.96934573
 20
4692187.48277258
 10
7511396.93466185
 20
4692187.52074016
 10
7511396.90129982
 20
4692187.55987432
 10
7511396.86929884
 20
4692187.60012907
 10
7511396.83869652
 20
4692187.6414571
 10
7511396.80952883
 20
4692187.68380984
 10
7511396.78183006
 20
4692187.7271375
 10
7511396.75563276
 20
4692187.77138916
 10
7511396.73096771
 20
4692187.81651281
 10
7511396.70786392
 20
4692187.86245541
 10
7511396.68634854
 20
4692187.90916297
 10
7511396.66644684
 20
4692187.95658059
 10
7511396.64818223
 20
4692188.00465253
 10
7511396.63157617
 20
4692188.05332231
 10
7511396.61664818
 20
4692188.1025327
 10
7511396.6034158
 20
4692188.15222588
 10
7511396.59189459
 20
4692188.20234344
 10
7511396.58209809
 20
4692188.25282648
 10
7511396.57403781
 20
4692188.30361565
 10
7511396.56772323
 20
4692188.35465126
 10
7511396.56316176
 20
4692188.40587334
 10
7511396.56035877
 20
4692188.45722167
 10
7511396.55931755
 20
4692188.50863591
 10
7511396.56003933
 20
4692188.56005562
 10
7511396.56252326
 20
4692188.61142038
 10
7511396.56676642
 20
4692188.6626698
 10
7511399.47956899
 20
4692217.76728546
 10
7511426.96920767
 20
4692213.27429624
 10
7511422.03334451
 20
4692183.07500395
 10
7511397.81735624
 20
4692187.0329379
 97
0
 75
0
 76
1
 98
0
  0
HATCH
  5
20008
100
AcDbEntity
  8
0
100
AcDbHatch
 10
0
 20
0
 30
0
210
0
220
0
230
1
  2
SOLID
 70
1
 71
0
 91
1
 92
2
 72
0
 73
1
 93
7
 10
7511408.08292785
 20
4692297.30634999
 10
7511409.17216335
 20
4692306.24569473
 10
7511411.42491129
 20
4692320.02877407
 10
7511441.93347139
 20
4692315.04236325
 10
7511437.73973167
 20
4692289.383635
 10
7511407.89327289
 20
4692294.26182999
 10
7511408.08292785
 20
4692297.30634999
 97
0
 75
0
 76
1
 98
0
  0
ENDSEC
  0
SECTION
  2
OBJECTS
  0
DICTIONARY
  5
C
330
0
100
AcDbDictionary
281
     1
  3
ACAD_GROUP
350
D
  3
ACAD_LAYOUT
350
1A
  3
ACAD_MLEADERSTYLE
350
43
  3
ACAD_PLOTSETTINGS
350
19
  3
ACAD_PLOTSTYLENAME
350
E
  3
ACAD_TABLESTYLE
350
42
  0
DICTIONARY
  5
D
102
{ACAD_REACTORS
330
C
102
}
330
C
100
AcDbDictionary
281
     1
  0
DICTIONARY
  5
1A
102
{ACAD_REACTORS
330
C
102
}
330
C
100
AcDbDictionary
281
     1
  3
Layout1
350
1E
  3
Model
350
22
  0
DICTIONARY
  5
43
102
{ACAD_REACTORS
330
C
102
}
330
C
100
AcDbDictionary
281
     1
  0
DICTIONARY
  5
19
102
{ACAD_REACTORS
330
C
102
}
330
C
100
AcDbDictionary
281
     1
  0
ACDBDICTIONARYWDFLT
  5
E
102
{ACAD_REACTORS
330
C
102
}
330
C
100
AcDbDictionary
281
     1
  3
Normal
350
F
100
AcDbDictionaryWithDefault
340
F
  0
DICTIONARY
  5
42
102
{ACAD_REACTORS
330
C
102
}
330
C
100
AcDbDictionary
281
     1
  0
LAYOUT
  5
1E
102
{ACAD_REACTORS
330
1A
102
}
330
1A
100
AcDbPlotSettings
  1

  2
none_device
  4

  6

 40
0.0
 41
0.0
 42
0.0
 43
0.0
 44
0.0
 45
0.0
 46
0.0
 47
0.0
 48
0.0
 49
0.0
140
0.0
141
0.0
142
1.0
143
1.0
 70
   688
 72
     0
 73
     0
 74
     5
  7

 75
    16
 76
     0
 77
     2
 78
   300
147
1.0
148
0.0
149
0.0
100
AcDbLayout
  1
Layout1
 70
     1
 71
     1
 10
0.0
 20
0.0
 11
12.0
 21
9.0
 12
0.0
 22
0.0
 32
0.0
 14
1.000000000000000E+20
 24
1.000000000000000E+20
 34
1.000000000000000E+20
 15
-1.000000000000000E+20
 25
-1.000000000000000E+20
 35
-1.000000000000000E+20
146
0.0
 13
0.0
 23
0.0
 33
0.0
 16
1.0
 26
0.0
 36
0.0
 17
0.0
 27
1.0
 37
0.0
 76
     0
330
1B
  0
LAYOUT
  5
22
102
{ACAD_REACTORS
330
1A
102
}
330
1A
100
AcDbPlotSettings
  1

  2
none_device
  4

  6

 40
0.0
 41
0.0
 42
0.0
 43
0.0
 44
0.0
 45
0.0
 46
0.0
 47
0.0
 48
0.0
 49
0.0
140
0.0
141
0.0
142
1.0
143
1.0
 70
  1712
 72
     0
 73
     0
 74
     0
  7

 75
     0
 76
     0
 77
     2
 78
   300
147
1.0
148
0.0
149
0.0
100
AcDbLayout
  1
Model
 70
     1
 71
     0
 10
0.0
 20
0.0
 11
12.0
 21
9.0
 12
0.0
 22
0.0
 32
0.0
 14
30.0
 24
49.75
 34
0.0
 15
130.5
 25
163.1318914119703
 35
0.0
146
0.0
 13
0.0
 23
0.0
 33
0.0
 16
1.0
 26
0.0
 36
0.0
 17
0.0
 27
1.0
 37
0.0
 76
     0
330
1F
331
29
  0
ACDBPLACEHOLDER
  5
F
102
{ACAD_REACTORS
330
E
102
}
330
E
  0
ENDSEC
  0
EOF
